<svg xmlns="http://www.w3.org/2000/svg" version="1.1" xmlns:xlink="http://www.w3.org/1999/xlink" xmlns:svgjs="http://svgjs.com/svgjs" width="1440" height="560" preserveAspectRatio="none" viewBox="0 0 1440 560"><g mask="url(&quot;#SvgjsMask1002&quot;)" fill="none"><rect width="1440" height="560" x="0" y="0" fill="rgba(23, 83, 201, 0.95)"></rect><path d="M1488 560L0 560 L0 369.51Q37.69 335.2, 72 372.9Q78.19 307.08, 144 313.27Q172.64 269.91, 216 298.55Q295.18 257.73, 336 336.9Q387.32 268.22, 456 319.54Q485.63 277.17, 528 306.8Q554.81 261.61, 600 288.41Q654.79 271.2, 672 325.98Q754.72 288.7, 792 371.42Q839 298.43, 912 345.43Q933.67 295.1, 984 316.77Q1050.4 263.17, 1104 329.58Q1169.15 274.73, 1224 339.88Q1269.67 265.55, 1344 311.22Q1374.58 269.8, 1416 300.38Q1472.42 284.8, 1488 341.22z" fill="#182f5d"></path><path d="M1536 560L0 560 L0 408.33Q17.32 353.65, 72 370.97Q138.84 317.81, 192 384.65Q257.5 330.14, 312 395.64Q362.11 373.75, 384 423.85Q432.06 399.91, 456 447.97Q459.35 379.32, 528 382.66Q578.76 313.43, 648 364.19Q701.28 297.47, 768 350.74Q851.73 314.47, 888 398.19Q935.37 325.56, 1008 372.92Q1035.45 328.38, 1080 355.83Q1129.92 333.75, 1152 383.67Q1219.9 379.57, 1224 447.47Q1277.46 380.93, 1344 434.39Q1344.95 363.34, 1416 364.29Q1470.13 298.43, 1536 352.56z" fill="#25467d"></path><path d="M1560 560L0 560 L0 433.16Q84.26 397.42, 120 481.68Q190.26 431.94, 240 502.2Q244.82 435.02, 312 439.85Q352.79 408.64, 384 449.43Q434.04 379.47, 504 429.51Q605.38 410.89, 624 512.27Q659.21 427.48, 744 462.68Q791.12 389.8, 864 436.91Q942.64 395.55, 984 474.19Q1037.28 407.47, 1104 460.75Q1159.89 444.64, 1176 500.53Q1182.36 434.89, 1248 441.25Q1300.35 373.6, 1368 425.94Q1422.25 408.19, 1440 462.44Q1511.88 414.32, 1560 486.21z" fill="#356cb1"></path><path d="M1512 560L0 560 L0 584.76Q23.74 488.5, 120 512.24Q185.88 458.12, 240 523.99Q306.12 470.11, 360 536.22Q380.8 485.02, 432 505.83Q499.54 453.37, 552 520.9Q634.6 483.5, 672 566.1Q738.98 513.08, 792 580.06Q835.23 503.29, 912 546.52Q964.08 478.6, 1032 530.68Q1060.22 486.9, 1104 515.12Q1180.9 472.02, 1224 548.93Q1269.73 522.66, 1296 568.39Q1296.71 497.1, 1368 497.81Q1416.26 474.07, 1440 522.32Q1502.47 512.79, 1512 575.26z" fill="white"></path></g><defs><mask id="SvgjsMask1002"><rect width="1440" height="560" fill="#ffffff"></rect></mask></defs></svg>