<svg xmlns="http://www.w3.org/2000/svg" version="1.1" xmlns:xlink="http://www.w3.org/1999/xlink" xmlns:svgjs="http://svgjs.com/svgjs" width="1440" height="560" preserveAspectRatio="none" viewBox="0 0 1440 560"><g mask="url(&quot;#SvgjsMask1009&quot;)" fill="none"><rect width="1440" height="560" x="0" y="0" fill="rgba(7, 115, 227, 1)"></rect><path d="M 0,192 C 57.6,171 172.8,92.2 288,87 C 403.2,81.8 460.8,178.8 576,166 C 691.2,153.2 748.8,0.6 864,23 C 979.2,45.4 1036.8,254.8 1152,278 C 1267.2,301.2 1382.4,166.8 1440,139L1440 560L0 560z" fill="rgba(225, 169, 31, 1)"></path><path d="M 0,372 C 96,387 288,463.2 480,447 C 672,430.8 768,273.4 960,291 C 1152,308.6 1344,486.2 1440,535L1440 560L0 560z" fill="rgba(229, 180, 27, 1)"></path></g><defs><mask id="SvgjsMask1009"><rect width="1440" height="560" fill="#ffffff"></rect></mask></defs></svg>